                        <svg xmlns="http://www.w3.org/2000/svg">

                            <symbol id="pen" width="25px" height="25px" viewBox="0 0 512 512">
                                <g>
                                    <path d="M422.953,176.019c0.549-0.48,1.09-0.975,1.612-1.498l21.772-21.772c12.883-12.883,12.883-33.771,0-46.654
                                        l-40.434-40.434c-12.883-12.883-33.771-12.883-46.653,0l-21.772,21.772c-0.523,0.523-1.018,1.064-1.498,1.613L422.953,176.019z"/>
                                    <polygon  points="114.317,397.684 157.317,440.684 106.658,448.342 56,456 63.658,405.341 71.316,354.683 	"/>
                                    <polygon  points="349.143,125.535 118.982,355.694 106.541,343.253 336.701,113.094 324.26,100.653 81.659,343.253 
                                        168.747,430.341 411.348,187.74 	"/>
                                </g>
                            </symbol>

                            <symbol id="screen" width="23px" height="23px" viewBox="0 0 399.997 399.997">
                                <g>
                                    <path d="M366.684,24.971H33.316C14.945,24.971,0,39.917,0,58.288V275.56c0,18.371,14.945,33.317,33.316,33.317h107.412
                                        l-20.387,44.955c-2.105,4.643-1.709,10.037,1.053,14.321c2.762,4.285,7.51,6.873,12.607,6.873h131.996c0.006,0,0.014,0,0.02,0
                                        c8.285,0,15-6.715,15-15c0-2.493-0.605-4.848-1.686-6.916l-20.062-44.233h107.412c18.371,0,33.316-14.946,33.316-33.317V58.288
                                        C400,39.917,385.055,24.971,366.684,24.971z M370,275.561c0,1.829-1.488,3.316-3.316,3.316H33.316
                                        c-1.828,0-3.316-1.487-3.316-3.316V58.288c0-1.829,1.488-3.317,3.316-3.317h333.367c1.828,0,3.316,1.488,3.316,3.317L370,275.561
                                        L370,275.561z"/>
                                    <path d="M246.198,96.434c-1.057-1.056-2.921-0.9-4.166,0.344l-16.273,16.271c-1.247,1.247-1.4,3.116-0.348,4.171l23.103,23.103
                                        c0.525,0.526,1.261,0.751,2.013,0.688c0.756-0.063,1.53-0.413,2.157-1.038l16.271-16.272c1.244-1.245,1.4-3.111,0.343-4.166
                                        L246.198,96.434z"/>
                                    <path d="M146.336,197.582c-0.684-0.684-1.748-0.882-2.791-0.523c-1.042,0.359-1.902,1.226-2.257,2.271l-11.118,32.934
                                        c-0.353,1.037-0.148,2.089,0.532,2.768c0.512,0.517,1.24,0.759,2.011,0.693c0.248-0.021,0.503-0.073,0.756-0.16l32.934-11.12
                                        c1.044-0.354,1.912-1.215,2.27-2.256c0.362-1.041,0.162-2.107-0.521-2.792L146.336,197.582z"/>
                                    <path d="M229.504,182.228c1.451-0.662,2.51-1.965,2.859-3.519c0.35-1.555-0.047-3.185-1.071-4.405
                                        c-1.92-2.283-3.929-4.604-5.997-6.941l18.078-18.077c0.596-0.597,0.972-1.375,1.033-2.157c0.065-0.779-0.185-1.505-0.689-2.01
                                        l-23.104-23.101c-1.056-1.058-2.92-0.903-4.166,0.344l-17.63,17.633c-11.824-11.209-23.699-21.209-34.165-28.732
                                        c-7.369-5.296-20.85-14.199-28.355-14.313c-1.37-0.024-2.695,0.512-3.668,1.479c-0.976,0.966-1.519,2.285-1.508,3.657
                                        c0.039,5.114,4.528,14.341,12.639,25.977c7.72,11.075,18.326,23.802,30.426,36.563l-23,23.002
                                        c-1.248,1.247-1.403,3.111-0.346,4.166l23.103,23.101c0.525,0.531,1.254,0.755,2.011,0.691c0.752-0.063,1.533-0.414,2.155-1.035
                                        l23.446-23.447c2.047,1.811,4.077,3.571,6.079,5.268c0.929,0.787,2.097,1.209,3.296,1.209c0.271,0,0.543-0.022,0.815-0.065
                                        c1.471-0.239,2.765-1.109,3.539-2.383c1.368-2.248,3.15-4.479,5.301-6.626C223.281,185.806,226.284,183.693,229.504,182.228z"/>
                                    <path d="M242.292,186.495c-5.938,0-11.606,2.531-16.396,7.32c-5.748,5.748-8.257,11.777-7.257,17.438
                                        c0.993,5.604,5.446,10.627,12.22,13.771c5.827,2.707,11.138,3.546,15.821,4.287c4.932,0.778,9.585,1.516,13.726,4.325
                                        c0.857,0.585,1.859,0.882,2.864,0.882c0.706,0,1.415-0.146,2.079-0.444c1.613-0.719,2.74-2.225,2.977-3.977
                                        c1.775-13.241-0.765-25.133-7.152-33.476C256.245,190.186,249.363,186.495,242.292,186.495z"/>
                                </g>
                            </symbol>

                            <symbol id="burger" width="25px" height="25px" viewBox="0 0 512 512">
                                <g>
                                    <path d="M500.883,343.939l-63.441-34.607l63.44-34.604c14.823-8.086,14.824-29.371,0.001-37.457l-63.441-34.606l63.44-34.604
                                        c14.824-8.086,14.824-29.371,0-37.457l-234.667-128c-6.368-3.473-14.063-3.473-20.431,0l-234.667,128
                                        c-14.824,8.086-14.824,29.371,0,37.457l63.44,34.604l-63.441,34.606c-14.823,8.086-14.823,29.371,0.001,37.457l63.44,34.604
                                        l-63.441,34.607c-14.823,8.086-14.823,29.371,0.001,37.457l234.667,128c6.368,3.473,14.063,3.473,20.431,0l234.667-128
                                        C515.706,373.31,515.706,352.025,500.883,343.939z M256,45.634l190.116,103.699L256,253.033L65.884,149.333L256,45.634z
                                         M119.105,226.967l126.68,69.095c0.374,0.204,0.753,0.393,1.135,0.573c0.025,0.012,0.049,0.026,0.074,0.037
                                        c0.176,0.082,0.356,0.152,0.534,0.229c0.311,0.135,0.622,0.265,0.938,0.384c0.696,0.263,1.402,0.489,2.117,0.677
                                        c0.062,0.016,0.124,0.038,0.186,0.053c1.243,0.315,2.509,0.511,3.78,0.598c0.967,0.066,1.938,0.066,2.905,0
                                        c1.271-0.087,2.536-0.284,3.78-0.598c0.063-0.016,0.124-0.037,0.186-0.053c0.714-0.188,1.42-0.414,2.117-0.677
                                        c0.315-0.119,0.627-0.25,0.938-0.384c0.178-0.077,0.358-0.146,0.534-0.229c0.025-0.012,0.049-0.026,0.074-0.037
                                        c0.382-0.18,0.761-0.369,1.135-0.573l126.68-69.095l53.222,29.032L256,359.699l-190.117-103.7L119.105,226.967z M256,466.366
                                        l-190.117-103.7l53.222-29.032l126.68,69.095c0.374,0.204,0.753,0.393,1.135,0.573c0.025,0.012,0.049,0.026,0.074,0.037
                                        c0.176,0.082,0.356,0.152,0.534,0.229c0.311,0.135,0.622,0.265,0.938,0.384c0.696,0.263,1.402,0.489,2.117,0.677
                                        c0.062,0.016,0.124,0.038,0.186,0.053c0.066,0.017,0.133,0.028,0.199,0.044c3.307,0.803,6.76,0.803,10.067,0
                                        c0.066-0.016,0.133-0.027,0.199-0.044c0.063-0.016,0.124-0.037,0.186-0.053c0.714-0.188,1.42-0.414,2.117-0.677
                                        c0.315-0.119,0.627-0.25,0.938-0.384c0.178-0.077,0.358-0.146,0.534-0.229c0.025-0.012,0.049-0.026,0.074-0.037
                                        c0.382-0.18,0.761-0.369,1.135-0.573l126.68-69.095l53.222,29.032L256,466.366z"/>
                                </g>
                            </symbol>

                            <symbol id="telegram" width="25px" height="25px" viewBox="0 0 122.88 122.56">
                                <g>
                                    <path class="st0" d="M0,122.56L38.12,0h46l38.75,122.56H0L0,122.56z M71.1,112.9H51.78l1.57-23.31h16.17L71.1,112.9L71.1,112.9z M69,74.35H53.88l0.52-23.32h14.08L69,74.35L69,74.35z M67.95,35.65H54.92l0.52-23.31h11.46L67.95,35.65L67.95,35.65z"/>
                                </g>
                            </symbol>
                        </svg>

